# xmcd
#
# Track frame offsets: 
#        150
#        18026
#        34584
#        64746
#        77576
#        99908
#        118508
#        143765
#        166304
#
# Disc length: 2504 seconds
#
# Revision: 0
# Processed by: cddbd v1.5.2PL0 Copyright (c) Steve Scherf et al.
# Submitted via: ExactAudioCopyFreeDBPlugin 1.0
#
DISCID=6009c609
DTITLE=Dr. Jules And The Zyda Blues Revue - The Cure For The Common Bl
DTITLE=ues
DYEAR=1999
DGENRE=Blues
TTITLE0=Ain't So Bad
TTITLE1=Never Too Old to Zydeco
TTITLE2=Mississippi Miles
TTITLE3=Food On The Table
TTITLE4=My Baby
TTITLE5=I Said Hey
TTITLE6=Seven Days
TTITLE7=Party
TTITLE8=Walk Away
EXTD=
EXTT0=
EXTT1=
EXTT2=
EXTT3=
EXTT4=
EXTT5=
EXTT6=
EXTT7=
EXTT8=
PLAYORDER=
